<?xml version="1.0" encoding="UTF-8"?>
<svg id="Camada_1" xmlns="http://www.w3.org/2000/svg" version="1.1" viewBox="0 0 453.54 453.54">
  <!-- Generator: Adobe Illustrator 30.4.0, SVG Export Plug-In . SVG Version: 2.1.4 Build 226)  -->
  <path d="M224.37,27.31c1.36-.78,2.23-2.47,2.23-4.35V0c-.29.07-.71.17-1.22.29C128.66,23.39,68.08,109.28,64.57,114.39,7.86,197.05.75,289.47-.29,323.07c-.08,2.72,1.65,4.98,3.83,4.98h58.54c2.11,0,3.8-2.12,3.83-4.76,1.53-130.21,65.76-242.41,158.45-296h0v.02Z"/>
  <path d="M138.75,280.93c15.09-49.62,46.43-90.27,86.58-113.23.78-.44,1.27-1.4,1.27-2.45v-43.89c0-2.12-1.88-3.45-3.32-2.31-45.1,35.77-77.88,93.17-88.69,160.34-.52,3.25,3.2,4.65,4.15,1.54h.01Z"/>
  <path d="M228.88,426.24c-1.36.79-2.23,2.48-2.23,4.35v22.96c.29-.07.71-.17,1.22-.28,96.72-23.1,157.3-108.99,160.81-114.11,56.71-82.66,63.83-175.08,64.86-208.68.08-2.72-1.66-4.97-3.83-4.97h-58.54c-2.11,0-3.8,2.12-3.83,4.76-1.53,130.21-65.76,242.41-158.45,296v-.02h0Z"/>
  <path d="M314.51,172.61c-15.09,49.62-46.43,90.27-86.59,113.23-.78.44-1.28,1.4-1.28,2.45v43.89c0,2.12,1.88,3.45,3.32,2.31,45.1-35.77,77.88-93.17,88.7-160.34.52-3.25-3.21-4.65-4.15-1.54h0Z"/>
</svg>