<?xml version="1.0" encoding="UTF-8"?>
<svg id="Camada_2" data-name="Camada 2" xmlns="http://www.w3.org/2000/svg" viewBox="0 0 453.84 453.55">
  <defs>
    <style>
      .cls-1 {
        fill: #fff;
      }
    </style>
  </defs>
  <g id="Camada_2-2" data-name="Camada 2">
    <g>
      <path class="cls-1" d="M314.8,172.61c-15.09,49.62-46.43,90.27-86.59,113.23-.78.44-1.28,1.4-1.28,2.45v43.89c0,2.12,1.88,3.45,3.32,2.31,45.1-35.77,77.88-93.17,88.7-160.34.52-3.25-3.21-4.65-4.15-1.54h0Z"/>
      <path class="cls-1" d="M224.66,27.31c1.36-.78,2.23-2.47,2.23-4.35V0c-.29.07-.71.17-1.22.29C128.95,23.39,68.37,109.28,64.86,114.39,8.15,197.05,1.04,289.47,0,323.07c-.08,2.72,1.65,4.98,3.83,4.98h58.54c2.11,0,3.8-2.12,3.83-4.76,1.53-130.21,65.76-242.41,158.45-296h0v.02h0Z"/>
      <path class="cls-1" d="M139.04,280.93c15.09-49.62,46.43-90.27,86.58-113.23.78-.44,1.27-1.4,1.27-2.45v-43.89c0-2.12-1.88-3.45-3.32-2.31-45.1,35.77-77.88,93.17-88.69,160.34-.52,3.25,3.2,4.65,4.15,1.54h.01Z"/>
      <path class="cls-1" d="M229.17,426.24c-1.36.79-2.23,2.48-2.23,4.35v22.96c.29-.07.71-.17,1.22-.28,96.72-23.1,157.3-108.99,160.81-114.11,56.71-82.66,63.83-175.08,64.86-208.68.08-2.72-1.66-4.97-3.83-4.97h-58.54c-2.11,0-3.8,2.12-3.83,4.76-1.53,130.21-65.76,242.41-158.45,296v-.02h0Z"/>
    </g>
    <g>
      <path class="cls-1" d="M314.8,172.61c-15.09,49.62-46.43,90.27-86.59,113.23-.78.44-1.28,1.4-1.28,2.45v43.89c0,2.12,1.88,3.45,3.32,2.31,45.1-35.77,77.88-93.17,88.7-160.34.52-3.25-3.21-4.65-4.15-1.54h0Z"/>
      <path class="cls-1" d="M224.66,27.31c1.36-.78,2.23-2.47,2.23-4.35V0c-.29.07-.71.17-1.22.29C128.95,23.39,68.37,109.28,64.86,114.39,8.15,197.05,1.04,289.47,0,323.07c-.08,2.72,1.65,4.98,3.83,4.98h58.54c2.11,0,3.8-2.12,3.83-4.76,1.53-130.21,65.76-242.41,158.45-296h0v.02h0Z"/>
      <path class="cls-1" d="M139.04,280.93c15.09-49.62,46.43-90.27,86.58-113.23.78-.44,1.27-1.4,1.27-2.45v-43.89c0-2.12-1.88-3.45-3.32-2.31-45.1,35.77-77.88,93.17-88.69,160.34-.52,3.25,3.2,4.65,4.15,1.54h.01Z"/>
      <path class="cls-1" d="M229.17,426.24c-1.36.79-2.23,2.48-2.23,4.35v22.96c.29-.07.71-.17,1.22-.28,96.72-23.1,157.3-108.99,160.81-114.11,56.71-82.66,63.83-175.08,64.86-208.68.08-2.72-1.66-4.97-3.83-4.97h-58.54c-2.11,0-3.8,2.12-3.83,4.76-1.53,130.21-65.76,242.41-158.45,296v-.02h0Z"/>
    </g>
  </g>
</svg>