<?xml version="1.0" encoding="UTF-8"?>
<svg id="Camada_1" xmlns="http://www.w3.org/2000/svg" version="1.1" viewBox="0 0 453.5 453.5">
  <!-- Generator: Adobe Illustrator 30.4.0, SVG Export Plug-In . SVG Version: 2.1.4 Build 226)  -->
  <path d="M224.4,27.3c1.4-.8,2.2-2.5,2.2-4.4V0c-.3,0-.7.2-1.2.3C128.7,23.4,68.1,109.3,64.6,114.4,7.9,197.1.8,289.5-.3,323.1c0,2.7,1.7,5,3.8,5h58.5c2.1,0,3.8-2.1,3.8-4.8,1.5-130.2,65.8-242.4,158.4-296h0s0,0,0,0Z"/>
  <path d="M138.8,280.9c15.1-49.6,46.4-90.3,86.6-113.2.8-.4,1.3-1.4,1.3-2.4v-43.9c0-2.1-1.9-3.4-3.3-2.3-45.1,35.8-77.9,93.2-88.7,160.3-.5,3.2,3.2,4.6,4.1,1.5h0Z"/>
  <path d="M228.9,426.2c-1.4.8-2.2,2.5-2.2,4.4v23c.3,0,.7-.2,1.2-.3,96.7-23.1,157.3-109,160.8-114.1,56.7-82.7,63.8-175.1,64.9-208.7,0-2.7-1.7-5-3.8-5h-58.5c-2.1,0-3.8,2.1-3.8,4.8-1.5,130.2-65.8,242.4-158.4,296h0s0,0,0,0Z"/>
  <path d="M314.5,172.6c-15.1,49.6-46.4,90.3-86.6,113.2-.8.4-1.3,1.4-1.3,2.5v43.9c0,2.1,1.9,3.5,3.3,2.3,45.1-35.8,77.9-93.2,88.7-160.3.5-3.2-3.2-4.6-4.1-1.5h0Z"/>
</svg>